<svg xmlns="http://www.w3.org/2000/svg" xmlns:xlink="http://www.w3.org/1999/xlink" width="100" zoomAndPan="magnify" viewBox="0 0 75 74.999997" height="100" preserveAspectRatio="xMidYMid meet" version="1.0"><defs><clipPath id="id1"><path d="M 18.214844 49.105469 L 26.5625 49.105469 L 26.5625 57.457031 L 18.214844 57.457031 Z M 18.214844 49.105469 " clip-rule="nonzero"/></clipPath><clipPath id="id2"><path d="M 48.699219 49.105469 L 56.949219 49.105469 L 56.949219 57.457031 L 48.699219 57.457031 Z M 48.699219 49.105469 " clip-rule="nonzero"/></clipPath><clipPath id="id3"><path d="M 13.269531 17.714844 L 62 17.714844 L 62 46 L 13.269531 46 Z M 13.269531 17.714844 " clip-rule="nonzero"/></clipPath></defs><path fill="rgb(36.859131%, 9.01947%, 92.158508%)" d="M 37.457031 0 C 16.746094 0 -0.0429688 16.789062 -0.0429688 37.5 C -0.0429688 58.210938 16.746094 75 37.457031 75 C 58.167969 75 74.957031 58.210938 74.957031 37.5 C 74.957031 16.789062 58.167969 0 37.457031 0 " fill-opacity="1" fill-rule="nonzero"/><g clip-path="url(#id1)"><path fill="rgb(37.249756%, 79.219055%, 92.939758%)" d="M 19.476562 50.410156 C 21.085938 48.796875 23.691406 48.796875 25.300781 50.410156 C 26.910156 52.023438 26.910156 54.636719 25.300781 56.25 C 23.691406 57.859375 21.082031 57.859375 19.476562 56.25 C 17.867188 54.636719 17.867188 52.023438 19.476562 50.410156 " fill-opacity="1" fill-rule="nonzero"/></g><g clip-path="url(#id2)"><path fill="rgb(37.249756%, 79.219055%, 92.939758%)" d="M 52.820312 49.203125 C 55.097656 49.203125 56.941406 51.050781 56.941406 53.328125 C 56.941406 55.609375 55.097656 57.457031 52.820312 57.457031 C 50.546875 57.457031 48.703125 55.609375 48.703125 53.328125 C 48.703125 51.050781 50.546875 49.203125 52.820312 49.203125 " fill-opacity="1" fill-rule="nonzero"/></g><g clip-path="url(#id3)"><path fill="rgb(37.249756%, 79.219055%, 92.939758%)" d="M 20.261719 45.074219 L 51.359375 45.074219 L 61.996094 24.5625 L 22.574219 24.5625 L 16.40625 18.386719 C 15.730469 17.710938 14.636719 17.710938 13.964844 18.386719 C 13.289062 19.0625 13.289062 20.15625 13.964844 20.832031 L 20.261719 27.144531 L 20.261719 45.074219 " fill-opacity="1" fill-rule="nonzero"/></g></svg>